<svg xmlns="http://www.w3.org/2000/svg" viewBox="0 0 96 96"><rect width="96" height="96" rx="28" fill="#fff7e6"/><path d="M23 34c-8-7-5-18 5-18 6 0 9 6 10 13" fill="#5b4636"/><path d="M73 34c8-7 5-18-5-18-6 0-9 6-10 13" fill="#5b4636"/><ellipse cx="48" cy="49" rx="31" ry="27" fill="#fdfdf8" stroke="#5b4636" stroke-width="4"/><path d="M35 32c11 0 8 14-2 13-8-1-10-13 2-13ZM61 55c12 1 11 14 0 15-10 1-15-14 0-15Z" fill="#3b312a"/><ellipse cx="48" cy="61" rx="18" ry="12" fill="#ffd7d7"/><circle cx="40" cy="58" r="2.5" fill="#5b4636"/><circle cx="56" cy="58" r="2.5" fill="#5b4636"/><circle cx="37" cy="45" r="3.5"/><circle cx="59" cy="45" r="3.5"/></svg>
